# xmcd
#
# Track frame offsets:
#	150
#	13038
#	25298
#	39826
#	49227
#	64171
#	75391
#	91854
#	105781
#	119711
#	138612
#	154001
#	166004
#	176711
#	186193
#	191931
#	199144
#	217522
#	230661
#
# Disc length: 3302 seconds
#
# Revision: 0
# Processed by: cddbd v1.5.2PL0 Copyright (c) Steve Scherf et al.
# Submitted via: audiograbber 1.83.01
#
DISCID=f80ce413
DTITLE=Haus Raphael - Lobpreis LIVE! 1 Gebetstag
DYEAR=1900
DGENRE=Lobpreis
TTITLE0=Richtet die Augen auf zum Herrn
TTITLE1=Wir kommen zu Dir
TTITLE2=Lobet dem Herrn
TTITLE3=Saget danke alle Zeit
TTITLE4=Oh der Himmel
TTITLE5=Bedenkenlos Maria
TTITLE6=Komm heiliger Geist
TTITLE7=Dein heiliger Geist
TTITLE8=Ich will singen
TTITLE9=Wer blaubt ist nie allein
TTITLE10=Halleluja
TTITLE11=Herrsche über uns
TTITLE12=Ohr das den Ruf vernahm
TTITLE13=Gloria Ehre sei Gott
TTITLE14=Heilig heilig heilig
TTITLE15=Du bist mein Zufluchtsort
TTITLE16=So wie der Wind
TTITLE17=Von Ewigkeit zu Ewigkeit
TTITLE18=Ja o Herr du bist gut
EXTD=
EXTT0=
EXTT1=
EXTT2=
EXTT3=
EXTT4=
EXTT5=
EXTT6=
EXTT7=
EXTT8=
EXTT9=
EXTT10=
EXTT11=
EXTT12=
EXTT13=
EXTT14=
EXTT15=
EXTT16=
EXTT17=
EXTT18=
PLAYORDER=
